<svg id="Capa_1" enable-background="new 0 0 512 512" height="512" viewBox="0 0 512 512" width="512" xmlns="http://www.w3.org/2000/svg"><g><path d="m381.331 273.919c-.417-3.184-3.156-5.553-6.367-5.553h-30.165c-2.842 0-5.327-1.877-6.143-4.599-1.9-6.336-4.422-12.402-7.503-18.124-1.348-2.504-.921-5.588 1.091-7.599l21.321-21.321c2.271-2.271 2.531-5.885.574-8.432-7.317-9.525-15.854-18.062-25.379-25.379-2.547-1.957-6.161-1.697-8.432.574l-21.321 21.321c-2.011 2.011-5.095 2.439-7.599 1.091-5.722-3.081-11.788-5.603-18.124-7.503-2.722-.816-4.599-3.301-4.599-6.143v-30.165c0-3.211-2.369-5.95-5.553-6.367-5.875-.769-11.865-1.169-17.949-1.169s-12.075.4-17.949 1.169c-3.184.417-5.553 3.156-5.553 6.367v30.165c0 2.842-1.877 5.327-4.599 6.143-6.336 1.9-12.402 4.422-18.124 7.503-2.504 1.348-5.588.921-7.599-1.091l-21.321-21.321c-.635-.635-1.381-1.096-2.174-1.412-5.345 5.192-9.262 11.452-11.439 18.342l-5.167 16.352 1.218.128c9.444.993 16.566 8.913 16.566 18.421 0 10.216-8.312 18.528-18.528 18.528v2c10.216 0 18.528 8.312 18.528 18.528s-8.312 18.528-18.528 18.528h-10.938l-4.668 22.469h10.659c2.842 0 5.327 1.877 6.143 4.599 1.9 6.336 4.422 12.402 7.503 18.124 1.348 2.504.921 5.588-1.091 7.599l-21.322 21.322c-2.271 2.271-2.531 5.885-.574 8.432 7.317 9.525 15.854 18.062 25.379 25.379 2.547 1.957 6.161 1.697 8.432-.574l21.321-21.321c2.011-2.011 5.095-2.439 7.599-1.091 5.722 3.081 11.788 5.603 18.124 7.503 2.722.816 4.599 3.301 4.599 6.143v30.165c0 3.211 2.369 5.95 5.553 6.367 5.875.769 11.865 1.169 17.949 1.169s12.075-.4 17.949-1.169c3.184-.417 5.553-3.156 5.553-6.367v-30.165c0-2.842 1.877-5.327 4.599-6.143 6.336-1.9 12.402-4.422 18.124-7.503 2.504-1.348 5.588-.921 7.599 1.091l21.321 21.321c2.271 2.271 5.885 2.531 8.432.574 9.525-7.317 18.062-15.854 25.379-25.379 1.957-2.547 1.697-6.161-.574-8.432l-21.321-21.321c-2.011-2.011-2.439-5.095-1.091-7.599 3.081-5.722 5.603-11.788 7.503-18.124.816-2.722 3.301-4.599 6.143-4.599h30.165c3.211 0 5.95-2.369 6.367-5.553.769-5.874 1.169-11.865 1.169-17.949.001-6.085-.399-12.076-1.168-17.95z" fill="#7ca1b1"/><g><path d="m206.245 348.975c-18.224-12.465-30.211-33.41-30.211-57.107s11.987-44.641 30.21-57.106c13.747-24.027 35.889-42.634 62.439-51.8v-20.875c0-3.211-2.369-5.95-5.553-6.367-5.874-.769-11.865-1.169-17.949-1.169s-12.075.4-17.949 1.169c-3.184.417-5.553 3.156-5.553 6.367v30.165c0 2.842-1.877 5.327-4.599 6.143-6.336 1.9-12.402 4.422-18.124 7.503-2.504 1.348-5.588.921-7.599-1.09l-21.321-21.321c-.635-.635-1.381-1.096-2.174-1.412-5.345 5.192-9.262 11.452-11.44 18.342l-5.167 16.352 1.218.128c9.444.993 16.566 8.913 16.566 18.421 0 10.216-8.312 18.528-18.528 18.528v2c10.216 0 18.528 8.312 18.528 18.528s-8.312 18.528-18.528 18.528h-10.938l-4.668 22.469h10.659c2.842 0 5.327 1.877 6.143 4.599 1.9 6.336 4.422 12.402 7.503 18.124 1.348 2.504.921 5.588-1.091 7.599l-21.319 21.321c-2.271 2.271-2.531 5.885-.574 8.432 7.317 9.525 15.854 18.062 25.379 25.379 2.547 1.957 6.161 1.697 8.432-.574l21.321-21.321c2.011-2.011 5.095-2.439 7.599-1.091 5.722 3.081 11.788 5.603 18.124 7.503 2.722.816 4.599 3.301 4.599 6.143v30.165c0 3.211 2.369 5.95 5.553 6.367 5.875.769 11.865 1.169 17.949 1.169s12.075-.4 17.949-1.169c3.184-.417 5.553-3.156 5.553-6.367v-20.875c-26.55-9.167-48.693-27.773-62.439-51.8z" fill="#678d98"/></g><g><circle cx="245.182" cy="291.868" fill="#3e5959" r="61.648"/></g><g><path d="m209.642 291.868c0-29.567 20.819-54.26 48.594-60.25-4.209-.908-8.573-1.398-13.054-1.398-34.047 0-61.648 27.601-61.648 61.648s27.601 61.648 61.648 61.648c4.481 0 8.845-.49 13.054-1.398-27.775-5.99-48.594-30.683-48.594-60.25z" fill="#384949"/></g><g><path d="m245.182 361.016c-38.128 0-69.148-31.02-69.148-69.148s31.02-69.147 69.148-69.147 69.147 31.02 69.147 69.147c.001 38.129-31.019 69.148-69.147 69.148zm0-123.295c-29.857 0-54.148 24.291-54.148 54.147 0 29.857 24.291 54.148 54.148 54.148s54.147-24.291 54.147-54.148c.001-29.857-24.29-54.147-54.147-54.147z" fill="#8ebac5"/></g><g><circle cx="245.182" cy="291.868" fill="#fff" r="31.292"/></g><g><path d="m239.775 291.868c0-12.665 7.528-23.564 18.349-28.488-3.945-1.795-8.325-2.804-12.942-2.804-17.282 0-31.292 14.01-31.292 31.292s14.01 31.292 31.292 31.292c4.617 0 8.997-1.008 12.942-2.804-10.821-4.924-18.349-15.823-18.349-28.488z" fill="#eef5f6"/></g><path d="m459.833 292.365-23.426-.402c-2.999-.052-5.481 2.318-5.567 5.316-2.886 100.403-85.843 181.096-187.108 180.32-101.025-.775-183.507-83.256-184.281-184.281-.009-1.235.218-2.467.615-3.696-4.843-3.346-8.027-8.929-8.027-15.248 0-10.216 8.312-18.528 18.527-18.528v-2c-10.216 0-18.527-8.312-18.527-18.528 0-9.509 7.122-17.428 16.566-18.421l1.218-.128-5.091-16.11c-2.119-6.705-5.646-12.64-10.308-17.463-18.627 32.081-29.354 69.152-29.374 108.562-.06 121.431 98.714 220.242 220.132 220.242 119.329 0 216.786-95.44 220.047-213.995.084-3.052-2.344-5.588-5.396-5.64z" fill="#05e39c"/><path d="m209.932 100.392c0 3.088-.147 6.152-.424 9.187 11.549-2.256 23.474-3.447 35.674-3.447h155.927c1.266 0 2.293 1.027 2.293 2.293v15.281c0 2.746 3.059 4.385 5.345 2.864l52.263-34.771c2.046-1.361 2.046-4.366 0-5.727l-52.263-34.771c-2.286-1.521-5.345.118-5.345 2.864v15.281c0 1.266-1.027 2.293-2.293 2.293h-154.023c-13.739 0-27.216 1.289-40.32 3.729 2.065 7.966 3.166 16.319 3.166 24.924z" fill="#05e39c"/><g><path d="m471.412 157.462h-49.414c-2.048 0-3.941 1.093-4.965 2.866l-24.707 42.794c-1.024 1.774-1.024 3.959 0 5.733l24.707 42.794c1.024 1.774 2.917 2.866 4.965 2.866h49.414c2.048 0 3.941-1.093 4.965-2.866l24.707-42.794c1.024-1.774 1.024-3.959 0-5.733l-24.707-42.794c-1.024-1.774-2.917-2.866-4.965-2.866z" fill="#a8d3d8"/></g><path d="m443.214 251.649-12.245-21.208c-8.029-5.185-13.359-14.205-13.359-24.452 0-10.248 5.33-19.268 13.359-24.453l12.244-21.208c1.024-1.774 2.917-2.866 4.965-2.866h-26.18c-2.048 0-3.94 1.093-4.965 2.866l-24.707 42.794c-1.024 1.774-1.024 3.959 0 5.733l24.707 42.794c1.024 1.774 2.917 2.866 4.965 2.866h26.18c-2.048 0-3.94-1.092-4.964-2.866z" fill="#8ebac5"/><g><circle cx="446.705" cy="205.989" fill="#fff" r="21.595"/></g><g><path d="m442.541 205.989c0-8.822 5.298-16.397 12.879-19.748-2.667-1.179-5.611-1.846-8.715-1.846-11.926 0-21.595 9.668-21.595 21.595 0 11.926 9.668 21.595 21.595 21.595 3.104 0 6.048-.667 8.715-1.846-7.581-3.354-12.879-10.928-12.879-19.75z" fill="#eef5f6"/></g><g><path d="m446.705 235.083c-16.043 0-29.095-13.052-29.095-29.094 0-16.043 13.052-29.095 29.095-29.095s29.095 13.052 29.095 29.095c0 16.042-13.052 29.094-29.095 29.094zm0-43.189c-7.772 0-14.095 6.323-14.095 14.095 0 7.771 6.323 14.094 14.095 14.094s14.095-6.323 14.095-14.094c0-7.772-6.323-14.095-14.095-14.095z" fill="#678d98"/></g><path d="m109.04.011c-53.464.78-97.424 44.177-98.855 97.627-.897 33.503 14.632 63.411 39.11 82.285 6.893 5.315 11.863 12.736 14.485 21.036l5.031 15.921c.579-.055 1.164-.089 1.757-.089h79.945c.593 0 1.178.034 1.757.089l5.107-16.162c2.674-8.461 7.995-15.772 14.983-21.241 23.477-18.373 38.573-46.961 38.573-79.085-.001-55.944-45.761-101.201-101.893-100.381z" fill="#fed402"/><path d="m63.78 200.959 4.722 14.943c.679-.071 1.368-.111 2.066-.111h26.232l-4.687-14.831c-2.623-8.3-7.592-15.721-14.485-21.036-24.478-18.873-40.007-48.782-39.11-82.285 1.316-49.151 38.596-89.796 86.156-96.625-5.101-.72-10.317-1.08-15.635-1.002-53.463.779-97.423 44.176-98.854 97.626-.897 33.503 14.632 63.411 39.11 82.285 6.893 5.315 11.862 12.736 14.485 21.036z" fill="#fac600"/><g><circle cx="110.54" cy="100.392" fill="#fee97d" r="58.206"/></g><path d="m110.54 34.686c-36.23 0-65.706 29.476-65.706 65.706 0 33.693 25.496 61.53 58.206 65.265v51.133h15v-51.133c32.71-3.736 58.206-31.572 58.206-65.265 0-36.23-29.476-65.706-65.706-65.706zm7.5 115.854v-26.967c-2.364.767-4.884 1.186-7.5 1.186s-5.136-.419-7.5-1.186v26.967c-24.415-3.636-43.206-24.736-43.206-50.148 0-27.959 22.747-50.706 50.706-50.706s50.706 22.747 50.706 50.706c0 25.411-18.791 46.512-43.206 50.148z" fill="#e8b800"/><path d="m150.512 215.79h-79.944c-10.785 0-19.528 8.743-19.528 19.528 0 10.785 8.743 19.528 19.528 19.528l2.379 1h74.996l2.57-1c10.785 0 19.528-8.743 19.528-19.528-.001-10.785-8.744-19.528-19.529-19.528z" fill="#a8d3d8"/><g><circle cx="110.54" cy="100.392" fill="#fe9901" r="25.367"/></g><path d="m102 100.392c0-11.06 7.08-20.461 16.953-23.932-2.633-.926-5.463-1.435-8.413-1.435-14.01 0-25.367 11.357-25.367 25.367s11.357 25.367 25.367 25.367c2.95 0 5.78-.509 8.413-1.435-9.873-3.471-16.953-12.872-16.953-23.932z" fill="#fb8801"/><g><path d="m80.656 292.901 5.376 24.91c1.522 7.051 7.758 12.085 14.971 12.085h19.445c7.258 0 13.52-5.094 14.996-12.201l5.151-24.794z" fill="#3e5959"/><path d="m112.197 317.811-5.376-24.91h-26.165l5.376 24.91c1.522 7.051 7.758 12.085 14.971 12.085h19.445c1.151 0 2.273-.142 3.359-.386-5.719-1.286-10.331-5.774-11.61-11.699z" fill="#384949"/><g><path d="m88.322 235.318c0-10.785 8.743-19.528 19.528-19.528h-37.282c-10.785 0-19.528 8.743-19.528 19.528 0 10.785 8.743 19.528 19.528 19.528h37.282c-10.785 0-19.528-8.743-19.528-19.528z" fill="#8ebac5"/></g><g><path d="m150.512 293.901h-79.944c-10.785 0-19.528-8.743-19.528-19.528 0-10.785 8.743-19.528 19.528-19.528h79.945c10.785 0 19.528 8.743 19.528 19.528-.001 10.785-8.744 19.528-19.529 19.528z" fill="#c8effe"/></g><g><path d="m88.322 274.373c0-10.785 8.743-19.528 19.528-19.528h-37.282c-10.785 0-19.528 8.743-19.528 19.528s8.743 19.528 19.528 19.528h37.282c-10.785 0-19.528-8.743-19.528-19.528z" fill="#a8d3d8"/></g></g></g></svg>